<svg xmlns="http://www.w3.org/2000/svg" viewBox="0 0 288 140"><defs><style>.a,.j{fill:#9a3b82}.b,.f{fill:#fff}.c{fill:#ffcf2d}.c,.e,.f,.g,.j{fill-rule:evenodd}.d,.e{fill:#fe5244}.g,.h{fill:#66b0f0}.i{fill:#e57281}</style></defs><path class="a" d="M282.78 140a5 5 0 005-5v-19.07a5 5 0 00-5-5H5.23a5 5 0 00-5 5V135a5 5 0 005 5z"/><path class="b" d="M282.69 106.63H5.31a5 5 0 00-5 5v19.08a5 5 0 005 5h277.38a5 5 0 005-5v-19.1a5 5 0 00-5-4.98z"/><path class="c" d="M0 111.61a5.31 5.31 0 015.31-5.3h277.38a5.31 5.31 0 015.31 5.3v19.08a5.3 5.3 0 01-5.31 5.3H5.31a5.3 5.3 0 01-5.31-5.3zm5.31-4.67a4.68 4.68 0 00-4.68 4.67v19.08a4.68 4.68 0 004.68 4.67h277.38a4.68 4.68 0 004.68-4.67v-19.08a4.68 4.68 0 00-4.68-4.67z"/><path class="d" d="M216.76 84.69L199 53.51a23.87 23.87 0 00-20.75-12H111.7l2.33-5c-.19.41-1.19.51-2.72.3a38.76 38.76 0 01-9.71-3c-2.17-1-4.15-2-5.78-2.89-3.09-1.76-5-3.3-4.66-4l-34 55.67A16.38 16.38 0 0075.9 107.3a16.55 16.55 0 004.65-2.44l26.09-19.6a2.61 2.61 0 014.14 1.67l3.41 21.22h88.9a15.7 15.7 0 0013.67-23.46zm-39.55 2.44l2.85-6.47a1.4 1.4 0 012.55 0l3.1 6.52h-8.5z"/><path class="e" d="M167.13 31.73c-3.58-3-9.7-5.15-19.89-3.88a48.44 48.44 0 00-17.46 5.52 21.2 21.2 0 00-5.28 4.05 6.34 6.34 0 00-1.89 4H122a6.93 6.93 0 012-4.42 21.92 21.92 0 015.44-4.18 49 49 0 0117.69-5.59c10.3-1.29 16.63.83 20.38 4a13.64 13.64 0 014.89 10.19h-.63a13 13 0 00-4.64-9.69z"/><path class="d" d="M169.75 41.54c0 4.88-22.55 14.87-22.55 14.87s-22.55-10-22.55-14.87 10.73-10.53 23.08-12c17.78-2.21 22.02 7.11 22.02 12z"/><path class="b" d="M169.75 41.54c0 4.88-22.55 14.87-22.55 14.87s-22.55-10-22.55-14.87v-.06h45.1z"/><path class="f" d="M147.2 58.72l-.14-.07-.79-.4c-.67-.34-1.64-.84-2.81-1.46-2.33-1.23-5.44-2.92-8.55-4.79a76.29 76.29 0 01-8.52-5.78 18.85 18.85 0 01-2.77-2.68 3.67 3.67 0 01-1-2.11H122a4.33 4.33 0 001.14 2.51 20.2 20.2 0 002.86 2.77 76 76 0 008.6 5.84c3.12 1.87 6.24 3.57 8.57 4.8 1.17.62 2.15 1.12 2.83 1.46l.79.4.21.11.14-.28-.14.28.14.07.14-.07-.14-.28.14.28.21-.11.79-.4c.69-.34 1.66-.84 2.83-1.46 2.34-1.23 5.46-2.94 8.58-4.81a76.68 76.68 0 008.59-5.83 19.68 19.68 0 002.87-2.77 4.33 4.33 0 001.14-2.51h-.63a3.7 3.7 0 01-1 2.11 19 19 0 01-2.66 2.68 75.79 75.79 0 01-8.51 5.78c-3.11 1.86-6.21 3.56-8.54 4.79-1.17.62-2.14 1.11-2.82 1.46l-.79.4-.11.05zM166.15 87.36a.26.26 0 01.27-.26c.5 0 .9.4 1.21.94a8.86 8.86 0 01.83 2.27 36.62 36.62 0 010 14.65 8.81 8.81 0 01-.83 2.28c-.31.53-.71.94-1.21.94a.27.27 0 110-.53c.19 0 .46-.17.75-.68a8.34 8.34 0 00.77-2.13 35.45 35.45 0 000-14.41 8.34 8.34 0 00-.77-2.13c-.29-.51-.56-.68-.75-.68a.27.27 0 01-.27-.26zM93.75 77.4l19.53-39 .47.23-19.53 39zM109.23 76.36a.26.26 0 01.3.22l3.23 21.23a.27.27 0 01-.22.3.26.26 0 01-.3-.22L109 76.66a.26.26 0 01.23-.3zM145.88 61.57a.27.27 0 01.27-.27h2.11a.27.27 0 010 .53h-2.11a.27.27 0 01-.27-.26zM145.88 64.08a.27.27 0 01.27-.27h2.11a.27.27 0 010 .53h-2.11a.27.27 0 01-.27-.26zM145.88 66.57a.27.27 0 01.27-.26h2.11a.27.27 0 010 .53h-2.11a.27.27 0 01-.27-.27zM145.88 69.07a.27.27 0 01.27-.26h2.11a.27.27 0 010 .53h-2.11a.27.27 0 01-.27-.27zM145.88 71.57a.26.26 0 01.27-.26h2.11a.26.26 0 010 .52h-2.11a.26.26 0 01-.27-.26zM145.88 74.08a.27.27 0 01.27-.27h2.11a.27.27 0 010 .53h-2.11a.27.27 0 01-.27-.26z"/><path class="f" d="M145.88 74.19a.27.27 0 01.27-.26h2.11a.27.27 0 010 .53h-2.11a.27.27 0 01-.27-.27zM145.88 76.69a.27.27 0 01.27-.26h2.11a.27.27 0 010 .53h-2.11a.27.27 0 01-.27-.27zM145.88 79.19a.27.27 0 01.27-.26h2.11a.26.26 0 01.26.26.26.26 0 01-.26.26h-2.11a.26.26 0 01-.27-.26zM145.88 81.57a.27.27 0 01.27-.26h2.11a.27.27 0 010 .53h-2.11a.27.27 0 01-.27-.27zM145.88 84.08a.27.27 0 01.27-.26h2.11a.27.27 0 010 .53h-2.11a.27.27 0 01-.27-.27zM145.88 86.58a.26.26 0 01.27-.26h2.11a.26.26 0 010 .52h-2.11a.26.26 0 01-.27-.26zM145.88 89.08a.27.27 0 01.27-.27h2.11a.27.27 0 010 .53h-2.11a.27.27 0 01-.27-.26zM145.88 91.58a.27.27 0 01.27-.27h2.11a.27.27 0 010 .53h-2.11a.27.27 0 01-.27-.26zM145.88 94.08a.27.27 0 01.27-.26h2.11a.27.27 0 010 .53h-2.11a.27.27 0 01-.27-.27zM145.88 96.58a.27.27 0 01.27-.26h2.11a.27.27 0 010 .53h-2.11a.27.27 0 01-.27-.27zM145.88 99.08a.27.27 0 01.27-.26h2.11a.27.27 0 010 .53h-2.11a.27.27 0 01-.27-.27zM145.88 101.58a.26.26 0 01.27-.26h2.11a.26.26 0 01.26.26.26.26 0 01-.26.26h-2.11a.27.27 0 01-.27-.26z"/><path class="f" d="M145.88 101.71a.27.27 0 01.27-.27h2.11a.27.27 0 010 .53h-2.11a.27.27 0 01-.27-.26zM145.88 104.2a.27.27 0 01.27-.26h2.11a.27.27 0 010 .53h-2.11a.27.27 0 01-.27-.27zM145.88 106.7a.27.27 0 01.27-.26h2.11a.27.27 0 010 .53h-2.11a.27.27 0 01-.27-.27zM145.66 97.85V58.16h.53v39.69zM164.93 87.34a.27.27 0 01.26-.27h25.38a.27.27 0 010 .53h-25.38a.26.26 0 01-.26-.26z"/><path class="b" d="M94.58 128.82h81L168 108.23h-64.64z"/><path class="g" d="M103.15 107.91h65.06l7.85 21.22h-82zm.42.64l-8.51 20h80.09l-7.38-20z"/><path class="h" d="M94.58 128.82c0-2.91 7.73-8.17 20.27-8.89 13.43-.76 20.47 7.67 20.27 8.89z"/><path class="b" d="M135.11 128.82s-3.57-16.66-34.87-13.26L107 99.12s25.64-4.66 28.12 9.11z"/><path class="g" d="M107.23 99.4l-6.5 15.79c15.38-1.58 24 1.71 28.88 5.47a17.61 17.61 0 014.73 5.46 9.42 9.42 0 01.45.9v-18.76a9.69 9.69 0 00-5.27-7 24.33 24.33 0 00-9.42-2.45 52.21 52.21 0 00-9 .1c-1.21.11-2.21.23-2.92.33l-.81.13zm27.57 29.48v-.13c0-.06-.08-.28-.16-.5a13.88 13.88 0 00-.81-1.79 17.18 17.18 0 00-4.57-5.26c-4.72-3.67-13.35-7-28.95-5.29a.32.32 0 01-.28-.12.29.29 0 010-.31L106.71 99a.32.32 0 01.23-.19l.06.31c-.06-.31-.06-.31 0-.31h.22l.82-.12c.71-.1 1.73-.23 3-.34a53.32 53.32 0 019.14-.1 24.8 24.8 0 019.67 2.52 10.36 10.36 0 015.6 7.45.13.13 0 010 .06v20.59a.32.32 0 01-.29.31.32.32 0 01-.34-.25z"/><path class="b" d="M175.13 127.52c-1.87-2.58-9.06-5.28-19.78-5.89-12.75-.73-19.73 5.32-20.24 7v-20.4s9.1-10.37 32.88 0z"/><path class="g" d="M135.43 108.36v19.15a8.78 8.78 0 011.06-1 18.5 18.5 0 014-2.53 30.29 30.29 0 0114.87-2.63 55.46 55.46 0 0113.29 2.22 22.66 22.66 0 014.26 1.79 10.78 10.78 0 011.41.94l-6.59-17.79c-11.78-5.11-19.89-5.09-25-3.82a17.69 17.69 0 00-5.63 2.39 11 11 0 00-1.32 1l-.32.3zm7.12-4.33c5.33-1.31 13.62-1.3 25.57 3.91a.33.33 0 01.17.18l7.14 19.29a.33.33 0 01-.15.39.32.32 0 01-.4-.09 7.12 7.12 0 00-2.28-1.84 22.17 22.17 0 00-4.14-1.73 54.31 54.31 0 00-13.13-2.2 29.59 29.59 0 00-14.55 2.57 17.82 17.82 0 00-3.88 2.49 8.61 8.61 0 00-1.05 1 2.36 2.36 0 00-.44.7.31.31 0 01-.35.22.33.33 0 01-.27-.31v-20.38a.32.32 0 01.08-.21l.24.21-.24-.21.09-.1.35-.32a11.24 11.24 0 011.39-1.06 18.55 18.55 0 015.85-2.54z"/><path class="g" d="M154.66 117.3a30.87 30.87 0 00-5.14.11zm-5.07.74a23.13 23.13 0 00-9 2.8.34.34 0 01-.44-.12.32.32 0 01.12-.43 23.86 23.86 0 019.22-2.88m.07.63a30.62 30.62 0 015-.11 50.63 50.63 0 019.49 1.38.33.33 0 00.39-.23.31.31 0 00-.23-.38 51.33 51.33 0 00-9.61-1.4M149.14 114a31.93 31.93 0 015.14-.12 53.65 53.65 0 019 1.26.33.33 0 01.24.39.31.31 0 01-.38.23 53.31 53.31 0 00-8.94-1.25 30.54 30.54 0 00-5 .12 23.31 23.31 0 00-9 2.79.314.314 0 11-.32-.54 23.86 23.86 0 019.22-2.88zM148.86 110.67a30.67 30.67 0 015.13-.12 54.3 54.3 0 018.46 1.13.33.33 0 01.25.38.32.32 0 01-.38.24 54.36 54.36 0 00-8.36-1.12 30.54 30.54 0 00-5 .12 23.26 23.26 0 00-9 2.79.31.31 0 01-.43-.12.31.31 0 01.12-.43 23.87 23.87 0 019.21-2.87zM172.28 125.67l-6.71-18.26.6-.22 6.71 18.26z"/><path class="h" d="M175.62 128.82h-40.51v-.22c.51-1.65 7.49-7.7 20.24-7 10.72.61 17.91 3.31 19.78 5.89z"/><path class="i" d="M160.13 41.47a31.91 31.91 0 01-18 2.35 34.47 34.47 0 01-8.29-2.35v-12.7l13.59-8.45 2 3.38z"/><path class="a" d="M148.13 21.32a6 6 0 01.36 4.91l-6.41 17.59a34.06 34.06 0 01-8.29-2.36V28.77l13.66-8.71zM147 15.64s1.55-14.16-4.11-15.45a6.13 6.13 0 00-6.48 2.26s-2.34-3.41-6-1.81c-3.45 1.52-3.21 6.25-1.66 5.87S127.28 3.1 124 5.34c-3.61 2.48 0 6.57 0 6.57a2.84 2.84 0 00-3.9 1.34c-1.53 3.25 7.2 10.27 7.2 10.27z"/><path class="i" d="M138.33 8.8l-9.07 3.64a4.27 4.27 0 00-2.37 5.56l4 9.86a7.15 7.15 0 009.26 3.95l3.77-1.51a7.14 7.14 0 004-9.25l-4-9.86a4.28 4.28 0 00-5.59-2.39z"/><path class="i" d="M149.66 20.29l-1.82.74-2-4.94 1.83-.73a2.1 2.1 0 012.74 1.17l.41 1a2.1 2.1 0 01-1.16 2.76z"/><path class="a" d="M128.88 28.22l1.83-.74-1.85-4.59-1.82.74a2.1 2.1 0 00-1.17 2.74l.27.68a2.12 2.12 0 002.74 1.17z"/><path class="j" d="M148.61 16.45a.26.26 0 01-.15.34 1.4 1.4 0 00-.78 1.82.26.26 0 01-.15.34.25.25 0 01-.34-.15 1.93 1.93 0 011.07-2.5.27.27 0 01.35.15zM143.66 13.55a.26.26 0 01-.12.35 7.64 7.64 0 01-3.58.75 7.19 7.19 0 01-1.08-.14l-.3-.08h-.08l.09-.25-.09.25a.26.26 0 01-.16-.34.27.27 0 01.34-.15l-.09.24.09-.24m0 0h.07a1.28 1.28 0 00.25.06 5.85 5.85 0 001 .13 7 7 0 003.33-.7.26.26 0 01.35.13M134.06 18a.27.27 0 01-.29-.23.26.26 0 01.24-.29v.26-.26h.17a2.61 2.61 0 01.42 0 3.85 3.85 0 011.32.51c1 .64 2.14 2 2.73 4.71a.26.26 0 01-.2.31.25.25 0 01-.32-.2c-.56-2.63-1.62-3.83-2.49-4.37a3.22 3.22 0 00-1.13-.44h-.45zM143.18 24.29l-.07.25.07-.25a.27.27 0 01.18.33.25.25 0 01-.32.18h-.14l-.52-.1a9.79 9.79 0 00-1.56-.17 3.25 3.25 0 00-1.45.26.88.88 0 00-.38.36 1 1 0 00-.12.6.26.26 0 11-.52 0 1.54 1.54 0 01.18-.9 1.5 1.5 0 01.6-.57 3.6 3.6 0 011.69-.31 9.53 9.53 0 011.65.17l.55.11h.21z"/><path class="a" d="M142.45 19.56c.22-.08.25-.59.05-1.15s-.54-.93-.76-.86-.25.6-.06 1.15.54.94.77.86zM133.75 23.19c.22-.08.24-.59.05-1.15s-.54-.94-.76-.86-.25.6-.06 1.15.54.94.77.86z"/><path class="c" d="M142.35 15.76a2.78 2.78 0 102.78 2.78 2.78 2.78 0 00-2.78-2.78zM139 18.54a3.31 3.31 0 113.31 3.31 3.31 3.31 0 01-3.31-3.31zM133.38 19.23a2.79 2.79 0 102.79 2.77 2.78 2.78 0 00-2.79-2.77zM130.07 22a3.31 3.31 0 113.31 3.31 3.31 3.31 0 01-3.31-3.31z"/><path class="c" d="M139.69 19.34a.27.27 0 01-.13.35l-3.22 1.47a.264.264 0 11-.22-.48l3.22-1.47a.26.26 0 01.35.13z"/><path class="b" d="M114.66 35.28c-.18.41-1.19.51-2.72.3a38.89 38.89 0 01-9.71-3c-2.17-1-4.14-2-5.77-2.89-3.09-1.76-5-3.3-4.65-4s2.68-.35 6 .73a60.08 60.08 0 016.08 2.36 70.25 70.25 0 018.94 4.55c1.34.84 2.02 1.53 1.83 1.95z"/><path class="e" d="M92.1 25.82s0 .11.13.35a4.55 4.55 0 00.83.86 24.67 24.67 0 003.56 2.37c1.61.92 3.57 1.9 5.74 2.87a38.48 38.48 0 009.62 3 7.79 7.79 0 001.79.08 1.48 1.48 0 00.48-.11c.1-.05.12-.08.12-.09v-.11a1.39 1.39 0 00-.26-.36 7.89 7.89 0 00-1.41-1.09 70.11 70.11 0 00-8.89-4.52 62.88 62.88 0 00-6-2.35 23.91 23.91 0 00-4.1-1 4.46 4.46 0 00-1.19 0c-.36 0-.42.08-.42.1zm5.84.3a25.66 25.66 0 00-4.22-1 5.29 5.29 0 00-1.36 0 1 1 0 00-.84.51 1 1 0 00.19 1 5.56 5.56 0 00.94 1 26.06 26.06 0 003.65 2.42l.16-.27-.16.27m15.6 6a9 9 0 001.94.08 2.37 2.37 0 00.66-.16.82.82 0 00.45-.41.78.78 0 000-.62 1.71 1.71 0 00-.38-.55 9.17 9.17 0 00-1.57-1.33 69.81 69.81 0 00-9-4.56 60.89 60.89 0 00-6.11-2.38M104 28.5l-.13.28.13-.28zm9 4.56l-.17.27.17-.27zm2 2.35l-.29-.12.29.13zm-3 .49v-.32.32z"/><path class="a" d="M132.57 13.9L129.7 25l-2.59-6.43a4.92 4.92 0 012.64-6.33z"/><path class="i" d="M132.67 13.7L127 23.57a3.67 3.67 0 01-3.19 1.84h-5.89a2.12 2.12 0 00-2 1.32l-3.06 6.61-.9 1.93a38.75 38.75 0 01-9.62-3c-1.29-.57-2.54-1.17-3.71-1.77l1.56-3.23 2.81-5.79a16.12 16.12 0 016.51-7.48l5.74-3.44a4.89 4.89 0 012.52-.7h9.75a3.51 3.51 0 011.54.35l2.94 1.35a1.52 1.52 0 01.67 2.14z"/><path class="j" d="M118.63 14a.27.27 0 01.26-.27h7a3.71 3.71 0 011.6.37l2.82 1.35a1.73 1.73 0 01.75 2.42.26.26 0 11-.45-.26 1.22 1.22 0 00-.53-1.69l-2.82-1.35a3.26 3.26 0 00-1.37-.31h-7a.26.26 0 01-.26-.26zM116.9 17a.26.26 0 01.26-.26h7a3.7 3.7 0 011.6.36l2.81 1.35a1.73 1.73 0 01.76 2.42.26.26 0 01-.36.1.26.26 0 01-.09-.36 1.22 1.22 0 00-.53-1.69l-2.82-1.34a3.13 3.13 0 00-1.37-.32h-7a.26.26 0 01-.26-.26zM114.86 20.92a.27.27 0 01.27-.26h7a3.67 3.67 0 011.6.36l2.82 1.35a1.73 1.73 0 01.76 2.42.27.27 0 01-.36.1.26.26 0 01-.1-.36 1.2 1.2 0 00-.53-1.68l-2.82-1.35a3.07 3.07 0 00-1.37-.32h-7a.26.26 0 01-.27-.26z"/><path class="a" d="M112 35.27a38.75 38.75 0 01-9.62-3 67.42 67.42 0 01-3.7-1.77l1.75-3.57c1.17.44 2.32.95 3.61 1.53a68.06 68.06 0 019 4.66z"/><path class="j" d="M112.81 25.13a.26.26 0 01.26-.27H118a.27.27 0 010 .53h-4.94a.26.26 0 01-.25-.26z"/><path class="b" d="M165.15 108.15c1.39 0 2.52-4.71 2.52-10.51s-1.13-10.51-2.52-10.51-2.52 4.7-2.52 10.51 1.13 10.51 2.52 10.51z"/><path class="i" d="M167.67 97.64a37.87 37.87 0 01-.3 5 6.31 6.31 0 01-3.69 3.61 6.42 6.42 0 01-2.21.4h-9.57a2.19 2.19 0 00-2.19 2.18v.3a2.35 2.35 0 01-3.44 2.07l-4.49-2.35a2.44 2.44 0 01-1.31-2.16v-3.51a4.17 4.17 0 011.67-3.34l6.86-5.18a6.69 6.69 0 014-1.33h14.42a36.08 36.08 0 01.25 4.31z"/><path class="j" d="M150.94 96.56a.27.27 0 01-.06.37l-6.29 4.73a3.59 3.59 0 00-1.43 2.86v3.23a2 2 0 001.06 1.74.27.27 0 01.11.36.25.25 0 01-.35.11 2.48 2.48 0 01-1.35-2.21v-3.23a4.13 4.13 0 011.64-3.28l6.3-4.73a.27.27 0 01.37.05z"/><path class="j" d="M154.15 98a.27.27 0 01-.06.37l-6.3 4.73a3.61 3.61 0 00-1.42 2.86v3.23a2 2 0 001.06 1.74.27.27 0 01.11.36.25.25 0 01-.35.11 2.48 2.48 0 01-1.35-2.21v-3.23a4.13 4.13 0 011.64-3.28l6.29-4.73a.28.28 0 01.38.05z"/><path class="a" d="M167.67 97.64a37.87 37.87 0 01-.3 5 6.31 6.31 0 01-3.69 3.61 29.49 29.49 0 01-1.06-8.59 40.93 40.93 0 01.22-4.31h4.61a38.41 38.41 0 01.22 4.29z"/><path class="b" d="M70 125.26H18.17a3.41 3.41 0 01-3.17-2.12L.82 88.1a2.56 2.56 0 012.37-3.51h51.86a3.39 3.39 0 013.15 2.13l14.19 35a2.54 2.54 0 01-2.39 3.54z"/><path class="c" d="M1.12 88l14.19 35a3.09 3.09 0 002.86 2H70a2.23 2.23 0 002.07-3.08l-14.19-35a3.09 3.09 0 00-2.86-1.93H3.19A2.24 2.24 0 001.12 88zm-.59.24a2.88 2.88 0 012.66-4h51.86a3.72 3.72 0 013.45 2.36l14.19 35a2.87 2.87 0 01-2.66 4H18.17a3.72 3.72 0 01-3.45-2.33z"/><path d="M67.62 125.52H18.15a3.25 3.25 0 01-3-2L1.6 90.07a2.43 2.43 0 012.26-3.34h49.48a3.23 3.23 0 013 2l13.54 33.43a2.44 2.44 0 01-2.26 3.36z" fill="#ffcf2d"/><path class="b" d="M37.25 110.32a5.43 5.43 0 01-3.87-1.61 4.44 4.44 0 010-6.28 3.66 3.66 0 012.62-1.06 3.62 3.62 0 012.57 1.06 3 3 0 010 4.24 2.48 2.48 0 01-3.51 0 .424.424 0 01.6-.6 1.64 1.64 0 002.32 0 2.14 2.14 0 000-3 2.8 2.8 0 00-4 0 3.55 3.55 0 00-1.06 2.55 3.64 3.64 0 001.08 2.51 4.64 4.64 0 006.52 0 .424.424 0 01.6.6 5.45 5.45 0 01-3.87 1.59zM88.59 129H18.23a1.46 1.46 0 01-1.46-1.46v-.71a1.46 1.46 0 011.46-1.46h70.36a1.46 1.46 0 011.47 1.46v.71a1.48 1.48 0 01-1.47 1.46z"/><path class="c" d="M18.23 125.65a1.15 1.15 0 00-1.15 1.15v.71a1.14 1.14 0 001.15 1.15h70.36a1.16 1.16 0 001.15-1.15v-.71a1.15 1.15 0 00-1.15-1.15zm-1.78 1.15a1.78 1.78 0 011.78-1.8h70.36a1.78 1.78 0 011.78 1.78v.71a1.79 1.79 0 01-1.78 1.78H18.23a1.78 1.78 0 01-1.78-1.78z"/></svg>